# xmcd CD database file
#
# Track frame offsets:
#	150
#	22299
#	43579
#	79726
#	112416
#	133196
#	150834
#	164386
#	175975
#	190356
#	209554
#	252089
#
# Disc length: 3554 seconds
#
# Revision: 0
# Processed by: cddbd v1.5.2PL0 Copyright (c) Steve Scherf et al.
# Submitted via: CDex 2.01
#
DISCID=ab0de00c
DTITLE=Babel and the Goodmen - Goodmen Im Cotton Club CD2
DYEAR=2005
DGENRE=Jazz
TTITLE0=Birdland
TTITLE1=Chameleon
TTITLE2=Cantaloupe Island
TTITLE3=Coconut Grove
TTITLE4=Sing Sing Sing
TTITLE5=Tuxedo Junction
TTITLE6=Take the A-Train
TTITLE7=S'Wonderful
TTITLE8=Mack the knife
TTITLE9=Just a Gigolo
TTITLE10=Everyday I have the blues
TTITLE11=New York, New York
EXTD=YEAR: 2005
EXTT0=
EXTT1=
EXTT2=
EXTT3=
EXTT4=
EXTT5=
EXTT6=
EXTT7=
EXTT8=
EXTT9=
EXTT10=
EXTT11=
PLAYORDER=
